#!OML:ASF I:\Actors\actors\Patient Classification 2\Patient 1\Session 1\actor1.ASF
:FULLY-SPECIFIED
:DEGREES

319
root -0.617795 18.0451 5.93792 2.83194 -32.8204 -2.45937
lowerback 2.39109 -7.66949 -3.1846
upperback -3.27533 -10.3181 2.69342
thorax -3.66643 -5.02188 5.01979
lowerneck -9.28955 4.06749 13.1991
upperneck 31.5175 0.617695 4.87349
head 12.1884 2.17332 -0.373615
rclavicle -5.04416e-014 -1.94809e-014
rhumerus 37.7376 43.6626 2.58621
rradius 139.562
rwrist -90.8377
rhand -1.25422 -57.0746
rfingers 7.12502
rthumb 24.3885 -85.5425
lclavicle -5.04416e-014 -1.94809e-014
lhumerus 22.8068 29.7767 86.8195
lradius 65.2323
lwrist 81.5415
lhand -40.6835 -1.67723
lfingers 7.12502
lthumb -13.6266 27.8568
rfemur 9.48275 16.475 14.3874
rtibia -19.8884
rfoot 4.65789 -4.9428
rtoes 1.32663
lfemur 15.6954 20.0112 -12.0593
ltibia 4.77083e-015
lfoot -18.8991 14.3624
ltoes 5.71057
320
root -0.614414 18.0492 5.92605 2.84376 -32.9254 -2.32719
lowerback 2.47933 -7.65048 -3.29824
upperback -3.16846 -10.3007 2.61753
thorax -3.60049 -5.01391 5.00518
lowerneck -9.34572 4.12488 13.1604
upperneck 31.4668 0.65176 5.03521
head 12.1825 2.20129 -0.300874
rclavicle 1.72148e-013 2.98177e-015
rhumerus 37.823 43.6702 2.4353
rradius 139.462
rwrist -90.8677
rhand -1.21867 -57.1693
rfingers 7.12502
rthumb 24.4226 -85.6327
lclavicle 1.72148e-013 2.98177e-015
lhumerus 23.0979 29.8845 86.8525
lradius 64.8085
lwrist 80.8272
lhand -39.906 -1.18914
lfingers 7.12502
lthumb -12.8772 28.3936
rfemur 9.36181 16.7367 14.2287
rtibia -19.9429
rfoot 4.64663 -5.12185
rtoes 1.15204
lfemur 15.5623 20.1372 -12.2111
ltibia -3.18055e-015
lfoot -18.8561 14.3474
ltoes 5.63094
321
root -0.610138 18.052 5.91706 2.90633 -33.0241 -2.2797
lowerback 2.54893 -7.62136 -3.30898
upperback -3.06547 -10.2637 2.5745
thorax -3.54175 -4.99864 4.96702
lowerneck -9.48368 4.18584 13.183
upperneck 31.4632 0.698245 5.0776
head 12.2134 2.2323 -0.279415
rclavicle 1.21582e-013 3.18055e-015
rhumerus 38.0448 43.6683 2.31006
rradius 139.403
rwrist -90.7967
rhand -1.20952 -57.3114
rfingers 7.12502
rthumb 24.4314 -85.7736
lclavicle 1.21582e-013 3.18055e-015
lhumerus 23.2963 29.9324 86.8746
lradius 64.5745
lwrist 80.4868
lhand -39.8474 -1.28939
lfingers 7.12502
lthumb -12.8207 28.2969
rfemur 9.22761 16.9247 14.1408
rtibia -19.9989
rfoot 4.65871 -5.27542
rtoes 1.11115
lfemur 15.4355 20.2616 -12.2969
ltibia 3.49861e-014
lfoot -18.8019 14.3512
ltoes 5.60155
322
root -0.604898 18.055 5.91014 3.01164 -33.1138 -2.23938
lowerback 2.60066 -7.57913 -3.28386
upperback -3.01751 -10.2078 2.53585
thorax -3.53764 -4.9723 4.91683
lowerneck -9.57432 4.23933 13.3744
upperneck 31.4523 0.767939 4.92627
head 12.2358 2.26939 -0.356732
rclavicle 1.6719e-013 1.11319e-014
rhumerus 38.3793 43.7631 2.23994
rradius 139.405
rwrist -90.6219
rhand -1.5648 -57.4479
rfingers 7.12502
rthumb 24.0908 -85.9556
lclavicle 1.6719e-013 1.11319e-014
lhumerus 23.4392 30.0146 86.9217
lradius 64.6409
lwrist 80.7889
lhand -39.8766 -0.908427
lfingers 7.12502
lthumb -12.8489 28.6761
rfemur 9.04736 17.0311 14.0419
rtibia -20.0393
rfoot 4.70832 -5.37972
rtoes 1.30796
lfemur 15.2695 20.3839 -12.3964
ltibia -4.77083e-015
lfoot -18.7509 14.3778
ltoes 5.64275
323
root -0.599639 18.0596 5.90289 3.11242 -33.1791 -2.13607
lowerback 2.64339 -7.53728 -3.31324
upperback -3.02519 -10.1556 2.49221
thorax -3.57781 -4.94421 4.89438
lowerneck -9.47879 4.26177 13.506
upperneck 31.3154 0.847671 4.79404
head 12.1657 2.29673 -0.421346
rclavicle 6.18842e-014 8.94531e-015
rhumerus 38.5896 43.8924 2.22222
rradius 139.387
rwrist -90.4641
rhand -1.90287 -57.4302
rfingers 7.12502
rthumb 23.7665 -85.9804
lclavicle 6.18842e-014 8.94531e-015
lhumerus 23.4495 29.9176 86.8482
lradius 64.4651
lwrist 80.6575
lhand -40.0112 -1.44249
lfingers 7.12502
lthumb -12.9786 28.1338
rfemur 8.8258 17.1276 13.8792
rtibia -20.0432
rfoot 4.75075 -5.44545
rtoes 1.2132
lfemur 15.0574 20.484 -12.5652
ltibia 7.95139e-015
lfoot -18.6775 14.4072
ltoes 5.67137
324
root -0.594153 18.0641 5.89614 3.19494 -33.2307 -2.01294
lowerback 2.65654 -7.49876 -3.33573
upperback -3.01499 -10.1072 2.42612
thorax -3.58753 -4.91961 4.8392
lowerneck -9.38014 4.27899 13.6376
upperneck 31.1522 0.927357 4.65091
head 12.0844 2.32153 -0.490393
rclavicle -7.56624e-015 -6.75868e-015
rhumerus 38.547 43.8879 2.07272
rradius 139.376
rwrist -90.4739
rhand -1.84592 -57.3633
rfingers 7.12502
rthumb 23.8212 -85.9064
lclavicle -7.56624e-015 -6.75868e-015
lhumerus 23.4179 29.8332 86.7416
lradius 64.8172
lwrist 81.6382
lhand -40.0011 -1.47003
lfingers 7.12502
lthumb -12.9688 28.1069
rfemur 8.59868 17.25 13.6946
rtibia -20.021
rfoot 4.74518 -5.51801
rtoes 1.10652
lfemur 14.8511 20.5689 -12.7512
ltibia -4.77083e-015
lfoot -18.5979 14.4058
ltoes 5.58817
